<svg width="183" height="48" viewBox="0 0 183 48" fill="none" xmlns="http://www.w3.org/2000/svg">
<path d="M23.7403 0C23.351 0 22.9625 0.00930854 22.5749 0.0279253C22.1872 0.0465421 21.7996 0.0753135 21.412 0.114239C21.0244 0.153165 20.6384 0.200553 20.2542 0.256403C19.8699 0.312254 19.4874 0.378259 19.1065 0.454419C18.7257 0.530578 18.3465 0.6152 17.969 0.708284C17.5916 0.801368 17.2175 0.904605 16.8468 1.018C16.4744 1.13139 16.1054 1.25325 15.7398 1.38356C15.3741 1.51388 15.0111 1.6552 14.6505 1.80752C14.2917 1.95645 13.9362 2.11385 13.5841 2.27971C13.232 2.44557 12.885 2.61989 12.5431 2.80267C12.2046 2.98545 11.866 3.1767 11.5275 3.37641C11.1889 3.57611 10.8606 3.78428 10.5423 4.00091C10.219 4.21755 9.90165 4.44095 9.59019 4.67112C9.27873 4.90129 8.97235 5.13992 8.67105 5.38702C8.37145 5.63411 8.07692 5.88798 7.78747 6.14861C7.49802 6.40925 7.21618 6.6775 6.94196 6.95336C6.66775 7.22754 6.39945 7.50933 6.13709 7.79874C5.87472 8.08814 5.62081 8.38262 5.37537 8.68218C5.12824 8.98174 4.88957 9.28808 4.65936 9.60118C4.42915 9.91428 4.20572 10.2316 3.98905 10.5532C3.77239 10.8764 3.56419 11.2048 3.36445 11.5382C3.16471 11.8716 2.97343 12.2101 2.79062 12.5536C2.60781 12.8921 2.43346 13.2391 2.26758 13.5945C2.1017 13.9499 1.94427 14.3053 1.79532 14.6607C1.64636 15.0195 1.50671 15.3817 1.37637 15.7472C1.24604 16.1128 1.12586 16.4818 1.01583 16.8541C0.902419 17.2264 0.799165 17.6005 0.706066 17.9762C0.612968 18.3519 0.528333 18.731 0.452162 19.1135C0.37599 19.4943 0.309975 19.8768 0.254116 20.261C0.198257 20.6452 0.150862 21.031 0.11193 21.4186C0.0729982 21.8062 0.0442213 22.1937 0.0256017 22.5813C0.006982 22.9689 -0.0014811 23.3573 0.000211595 23.7465C0.000211595 24.1358 0.00952159 24.5242 0.0281413 24.9118C0.0467609 25.2993 0.0755359 25.6869 0.114468 26.0745C0.1534 26.462 0.200797 26.8479 0.256656 27.2321C0.312515 27.6163 0.37853 27.9988 0.454701 28.3796C0.530873 28.7604 0.615507 29.1395 0.708606 29.5169C0.801704 29.8943 0.904112 30.2683 1.01583 30.639C1.12924 31.0113 1.25112 31.3803 1.38145 31.7458C1.51179 32.1114 1.65144 32.4736 1.80039 32.8324C1.94935 33.1912 2.10677 33.5466 2.27266 33.8986C2.43854 34.2506 2.61289 34.5976 2.7957 34.9394C2.97851 35.2779 3.16979 35.6164 3.36953 35.9549C3.56926 36.2934 3.77747 36.6217 3.99413 36.9399C4.2108 37.2632 4.43423 37.5805 4.66444 37.8919C4.89465 38.2033 5.13332 38.5096 5.38045 38.8109C5.62759 39.1121 5.88149 39.4066 6.14217 39.6943C6.40284 39.9821 6.67113 40.2638 6.94704 40.5397C7.22126 40.8139 7.50309 41.0821 7.79255 41.3445C8.082 41.6068 8.37652 41.8607 8.67613 42.1061C8.97574 42.3531 9.28212 42.5918 9.59527 42.822C9.90841 43.0521 10.2258 43.2755 10.5474 43.4922C10.8707 43.7088 11.1991 43.917 11.5326 44.1167C11.866 44.3164 12.2046 44.5076 12.5482 44.6904C12.8867 44.8732 13.2337 45.0475 13.5892 45.2134C13.9447 45.3792 14.3001 45.5366 14.6556 45.6856C15.0144 45.8345 15.3767 45.9741 15.7423 46.1044C16.1079 46.2347 16.4769 46.3566 16.8493 46.47C17.2217 46.5834 17.5958 46.6866 17.9716 46.7797C18.3474 46.8728 18.7265 46.9574 19.1091 47.0336C19.4899 47.1097 19.8725 47.1757 20.2567 47.2316C20.641 47.2874 21.0269 47.3348 21.4145 47.3738C21.8022 47.4127 22.1898 47.4415 22.5774 47.4601C22.965 47.4787 23.3535 47.488 23.7428 47.488C24.1322 47.488 24.5206 47.4787 24.9083 47.4601C25.2959 47.4415 25.6835 47.4127 26.0711 47.3738C26.4588 47.3348 26.8447 47.2874 27.2289 47.2316C27.6132 47.1757 27.9957 47.1097 28.3766 47.0336C28.7575 46.9574 29.1366 46.8728 29.5141 46.7797C29.8916 46.6866 30.2656 46.5834 30.6363 46.47C31.0087 46.3566 31.3777 46.2347 31.7434 46.1044C32.109 45.9741 32.4712 45.8345 32.8301 45.6856C33.1889 45.5366 33.5444 45.3792 33.8965 45.2134C34.2486 45.0475 34.5956 44.8732 34.9375 44.6904C35.276 44.5076 35.6146 44.3164 35.9531 44.1167C36.2917 43.917 36.62 43.7088 36.9383 43.4922C37.2616 43.2755 37.5789 43.0521 37.8904 42.822C38.2019 42.5918 38.5082 42.3531 38.8095 42.1061C39.1108 41.859 39.4054 41.6051 39.6931 41.3445C39.9809 41.0838 40.2627 40.8156 40.5386 40.5397C40.8128 40.2655 41.0811 39.9837 41.3435 39.6943C41.6059 39.4049 41.8598 39.1105 42.1052 38.8109C42.3523 38.5096 42.591 38.2033 42.8212 37.8919C43.0514 37.5805 43.2749 37.2632 43.4915 36.9399C43.7082 36.6167 43.9164 36.2883 44.1161 35.9549C44.3159 35.6215 44.5072 35.283 44.69 34.9394C44.8728 34.601 45.0471 34.254 45.213 33.8986C45.3789 33.5432 45.5363 33.1878 45.6853 32.8324C45.8342 32.4736 45.9739 32.1114 46.1042 31.7458C46.2346 31.3803 46.3564 31.0113 46.4698 30.639C46.5832 30.2666 46.6865 29.8926 46.7796 29.5169C46.8727 29.1412 46.9573 28.7621 47.0335 28.3796C47.1097 27.9988 47.1757 27.6163 47.2316 27.2321C47.2874 26.8479 47.3348 26.462 47.3737 26.0745C47.4127 25.6869 47.4415 25.2993 47.4601 24.9118C47.4787 24.5242 47.488 24.1358 47.488 23.7465C47.488 23.3573 47.4787 22.9689 47.4601 22.5813C47.4415 22.1937 47.4127 21.8062 47.3737 21.4186C47.3348 21.031 47.2874 20.6452 47.2316 20.261C47.1757 19.8768 47.1097 19.4943 47.0335 19.1135C46.9573 18.7327 46.8727 18.3536 46.7796 17.9762C46.6865 17.5988 46.5816 17.2247 46.4648 16.8541C46.3514 16.4818 46.2295 16.1128 46.0991 15.7472C45.9688 15.3817 45.8292 15.0195 45.6802 14.6607C45.5312 14.3019 45.3738 13.9465 45.2079 13.5945C45.042 13.2424 44.8677 12.8955 44.6849 12.5536C44.5021 12.2151 44.3108 11.8767 44.1111 11.5382C43.9113 11.1997 43.7031 10.8713 43.4865 10.5532C43.2715 10.2316 43.0481 9.91428 42.8162 9.60118C42.5843 9.28808 42.3456 8.98174 42.1001 8.68218C41.853 8.38262 41.5991 8.08814 41.3384 7.79874C41.0778 7.50933 40.8095 7.22754 40.5336 6.95336C40.2559 6.68765 39.975 6.42025 39.6906 6.15115C39.4062 5.88205 39.1117 5.62819 38.807 5.38956C38.5057 5.14246 38.1993 4.90383 37.8879 4.67366C37.5764 4.44348 37.259 4.22008 36.9357 4.00345C36.6124 3.78682 36.284 3.57865 35.9506 3.37894C35.6171 3.17924 35.2786 2.98799 34.935 2.80521C34.5964 2.62243 34.2494 2.4481 33.8939 2.28225C33.5385 2.11639 33.183 1.95899 32.8275 1.81006C32.4687 1.66112 32.1065 1.5215 31.7408 1.39118C31.3752 1.26086 31.0062 1.13901 30.6338 1.02562C30.2614 0.912222 29.8873 0.808983 29.5115 0.715899C29.1358 0.622816 28.7566 0.538194 28.3741 0.462034C27.9932 0.385875 27.6106 0.31987 27.2264 0.26402C26.8422 0.20817 26.4562 0.160781 26.0686 0.121855C25.681 0.0829291 25.2933 0.0541577 24.9057 0.035541C24.5181 0.0169242 24.1296 0.0050773 23.7403 0Z" fill="#4ABD2E"/>
<g clip-path="url(#clip0_21_2756)">
<path fill-rule="evenodd" clip-rule="evenodd" d="M21.9259 22.2789C24.6188 24.7574 28.3641 29.4963 31.4436 31.5574C34.33 33.209 36.7813 33.8226 39.857 34.997C40.4017 35.2759 39.7861 35.4626 39.5104 35.5816C38.5433 35.9984 36.8834 36.398 34.756 36.7226C33.81 36.7485 33.1625 36.6718 32.8069 36.4165C29.7463 33.9536 24.0799 26.1503 22.2629 24.0618C21.3166 23.0345 21.4267 22.0351 21.9259 22.2789Z" fill="white" stroke="white" stroke-width="0.0728244"/>
<path fill-rule="evenodd" clip-rule="evenodd" d="M23.7761 8.42794C24.991 8.86119 26.2796 9.35537 27.1162 10.096C27.36 10.2925 27.6392 10.6215 27.0385 11.1911C26.3636 12.1284 26.0281 12.8299 25.837 13.6307C24.1468 20.5687 19.6502 29.7169 15.5607 33.6449C14.0344 35.012 12.2191 36.5906 11.0767 36.969C10.4678 37.1642 10.3786 36.874 11.3365 36.0538C13.0217 34.5814 13.922 33.2503 15.128 31.837C19.2607 26.2555 21.7519 19.407 23.0538 15.4801C23.7063 12.834 23.6602 10.1252 23.3154 9.13517C22.9372 8.54243 23.3375 8.28331 23.7761 8.42794Z" fill="white"/>
</g>
<path d="M71.0465 20.806C72.7185 20.806 73.8625 20.85 74.5885 20.916C75.8865 21.004 76.2165 21.532 76.3045 22.214C76.3265 22.324 76.3265 22.412 76.3485 22.654C76.3705 22.918 76.4145 23.05 76.5905 23.05C76.7225 23.05 76.7885 22.918 76.8105 22.61C76.8325 22.06 76.9645 20.014 76.9645 19.706C76.9645 19.156 76.9425 19.024 76.7445 19.024C76.5905 19.024 76.4145 19.09 76.0625 19.156C75.7545 19.2 75.3585 19.244 74.6765 19.244H65.1065C64.2705 19.244 63.0605 19.178 62.6645 19.09C62.1585 18.98 62.0705 18.914 61.9165 18.914C61.7845 18.914 61.7185 19.134 61.6745 19.464C61.5205 20.3 61.2785 21.488 61.1905 22.39C61.1685 22.654 61.1685 22.83 61.3665 22.83C61.5205 22.83 61.5865 22.654 61.6305 22.478C61.6745 22.346 61.7185 22.214 61.8285 21.972C62.1145 21.202 62.5985 20.916 63.8305 20.85C64.9305 20.784 66.2945 20.806 67.1525 20.806V29.43C67.1525 31.564 67.1085 33.148 67.0205 34.072C66.9545 34.71 66.8005 35.194 66.3165 35.282C66.0745 35.326 65.8325 35.348 65.6125 35.37C65.3485 35.37 65.1725 35.436 65.1725 35.59C65.1725 35.766 65.3265 35.81 65.6785 35.81C66.4045 35.81 68.5385 35.744 68.9125 35.744C69.2645 35.744 71.3985 35.81 72.8945 35.81C73.2905 35.81 73.4005 35.744 73.4005 35.612C73.4005 35.458 73.3125 35.392 72.9605 35.37C72.5645 35.326 72.3005 35.304 72.0145 35.26C71.3545 35.15 71.2005 34.688 71.1565 34.116C71.0465 33.192 71.0465 31.146 71.0465 29.43V20.806ZM84.0356 32.18C84.1016 32.18 84.1896 32.224 84.2116 32.29L85.4216 34.996C85.5316 35.238 85.3336 35.26 85.1576 35.326C85.0256 35.37 84.8936 35.414 84.8936 35.546C84.8936 35.656 85.0256 35.744 85.2896 35.744C86.4556 35.766 88.7436 35.788 90.9656 35.81C91.1856 35.81 91.3616 35.744 91.3616 35.59C91.3616 35.48 91.2296 35.37 90.9876 35.37C90.8776 35.37 90.7236 35.348 90.5476 35.326C89.7996 35.216 89.4476 34.71 88.7656 33.302C87.4456 30.398 84.0356 23.248 83.5516 22.17C83.1776 21.422 83.0016 21.136 82.7816 21.136C82.5396 21.136 82.3196 21.422 81.8576 22.434L76.5776 33.698C76.0056 34.996 75.4996 35.26 74.5536 35.37C74.3116 35.37 74.2016 35.458 74.2016 35.59C74.2016 35.722 74.2896 35.81 74.5976 35.81C75.5436 35.81 76.8196 35.744 77.0396 35.744C78.1616 35.744 78.8216 35.81 79.7896 35.81C80.0536 35.81 80.1636 35.722 80.1636 35.568C80.1636 35.48 80.0976 35.392 79.8116 35.37C79.3056 35.326 78.4696 35.304 78.4696 34.666C78.4696 34.424 78.6016 33.984 78.7996 33.5L79.2616 32.378C79.2836 32.312 79.3496 32.18 79.4816 32.18H84.0356ZM80.0976 30.442C80.0536 30.442 80.0096 30.42 80.0316 30.354L81.6596 26.438C81.7036 26.35 81.7036 26.306 81.7696 26.416L83.5076 30.354C83.5296 30.398 83.5296 30.442 83.3976 30.442H80.0976ZM97.1156 27.164C97.1156 23.952 97.1376 23.666 97.1816 23.05C97.2256 22.368 97.3796 22.016 97.9296 21.928C98.2156 21.862 98.3036 21.862 98.5236 21.84C98.6996 21.84 98.8756 21.774 98.8756 21.598C98.8756 21.488 98.7876 21.4 98.4356 21.4C97.7316 21.4 95.1796 21.466 95.0696 21.466C94.2336 21.466 93.2656 21.4 92.0776 21.4C91.6816 21.4 91.5276 21.466 91.5276 21.62C91.5276 21.774 91.7036 21.818 91.9236 21.84C92.2096 21.862 92.4736 21.906 92.6496 21.95C93.1116 22.082 93.2876 22.39 93.3316 22.918C93.3756 23.534 93.3976 23.754 93.3976 26.922V30.266C93.3976 31.322 93.3756 32.378 93.3756 33.126C93.3096 34.886 93.2216 35.194 92.4296 35.326C92.2096 35.348 92.1656 35.348 91.9676 35.37C91.7036 35.37 91.5936 35.48 91.5936 35.568C91.5936 35.744 91.7476 35.81 92.0556 35.81C93.1776 35.81 94.1676 35.744 95.0916 35.744C97.1816 35.744 99.0076 35.854 101.978 35.854C102.704 35.854 102.836 35.854 103.012 35.348C103.21 34.798 103.496 32.884 103.496 32.4C103.496 32.136 103.452 32.004 103.32 32.004C103.144 32.004 103.078 32.18 103.034 32.4C102.792 33.456 102.374 33.918 101.824 34.138C101.274 34.336 100.746 34.358 99.6456 34.358C97.9956 34.358 97.6436 34.292 97.3576 33.896C97.0496 33.478 97.1156 32.092 97.1156 30.288V27.164ZM106.675 30.266C106.675 31.322 106.653 32.378 106.653 33.104C106.587 34.446 106.521 35.194 105.883 35.304C105.663 35.348 105.509 35.348 105.311 35.37C104.981 35.37 104.915 35.48 104.915 35.568C104.915 35.7 105.003 35.81 105.377 35.81C106.499 35.81 107.445 35.744 108.369 35.744C110.459 35.744 111.867 35.854 114.815 35.854C115.541 35.854 115.695 35.832 115.849 35.348C115.937 34.974 116.135 33.434 116.135 32.598C116.135 32.356 116.113 32.202 115.959 32.202C115.827 32.202 115.739 32.312 115.695 32.532C115.519 33.412 115.299 33.874 114.749 34.094C114.199 34.292 113.429 34.314 112.923 34.314C110.679 34.314 110.437 34.006 110.415 32.664C110.393 31.894 110.415 30.992 110.415 30.354V28.968C110.415 28.858 110.437 28.814 110.547 28.814C111.163 28.814 112.659 28.836 113.275 28.88C114.309 28.946 114.529 29.298 114.639 29.892C114.661 30.024 114.661 30.156 114.683 30.266C114.705 30.486 114.793 30.574 114.903 30.574C115.035 30.574 115.101 30.508 115.101 30.244C115.101 30.024 115.123 29.012 115.145 28.594C115.167 27.89 115.299 27.054 115.299 26.834C115.299 26.724 115.277 26.592 115.145 26.592C115.057 26.592 114.969 26.658 114.881 26.834C114.639 27.208 114.375 27.274 113.297 27.318C112.527 27.34 111.163 27.34 110.569 27.34C110.437 27.34 110.415 27.296 110.415 27.164V23.138C110.415 23.006 110.459 22.94 110.569 22.94C111.185 22.94 112.791 22.984 113.517 23.028C114.463 23.116 114.705 23.38 114.815 23.82C114.881 24.106 114.881 24.26 114.925 24.524C114.947 24.7 115.035 24.788 115.145 24.788C115.277 24.788 115.365 24.634 115.365 24.48C115.431 23.292 115.453 22.896 115.475 22.412C115.519 21.972 115.585 21.73 115.629 21.488C115.651 21.378 115.607 21.29 115.497 21.29C115.431 21.29 115.321 21.312 115.189 21.356C114.859 21.422 114.441 21.444 114.067 21.444C113.759 21.444 108.699 21.466 108.347 21.466C107.511 21.466 106.587 21.4 105.399 21.4C105.091 21.4 104.981 21.488 104.981 21.598C104.981 21.708 105.025 21.818 105.311 21.84C105.509 21.862 105.729 21.862 105.905 21.906C106.367 21.994 106.565 22.302 106.609 22.786C106.653 23.402 106.675 23.754 106.675 26.922V30.266ZM119.746 33.016C119.68 34.776 119.504 35.216 118.69 35.326C118.448 35.348 118.338 35.348 118.14 35.37C117.876 35.392 117.788 35.48 117.788 35.59C117.788 35.744 117.898 35.81 118.228 35.81C118.888 35.81 120.494 35.744 121.044 35.744C122.43 35.766 123.024 35.81 123.574 35.81C123.926 35.81 124.058 35.744 124.058 35.59C124.058 35.48 123.97 35.414 123.64 35.37C123.244 35.348 123.024 35.326 122.65 35.238C122.056 35.084 122.012 34.534 121.968 33.214L121.77 27.032C123.464 28.572 125.158 30.024 126.214 30.97C127.16 31.828 128.722 33.17 130.086 34.314C131.648 35.59 132.33 36.074 132.66 36.074C132.946 36.074 133.078 35.876 133.078 34.776C133.1 30.948 133.166 27.054 133.342 23.468C133.408 22.258 133.628 21.972 134.288 21.884C134.42 21.862 134.486 21.862 134.728 21.84C135.014 21.818 135.058 21.686 135.058 21.598C135.058 21.488 134.97 21.4 134.64 21.4C133.848 21.4 132.814 21.466 132.33 21.466C131.45 21.466 130.086 21.4 129.36 21.4C129.162 21.4 128.986 21.466 128.986 21.62C128.986 21.708 129.074 21.818 129.338 21.84C129.646 21.862 129.888 21.884 130.13 21.928C130.988 22.06 131.12 22.566 131.164 23.622L131.274 30.354C130.702 29.848 129.668 28.968 127.49 27.054C125.048 24.898 122.012 22.302 121.066 21.554C120.516 21.136 120.428 21.136 120.318 21.136C120.032 21.136 119.966 21.466 119.944 22.104C119.856 24.656 119.856 29.078 119.746 33.016ZM138.644 30.266C138.644 33.83 138.754 35.216 137.808 35.304C137.522 35.348 137.456 35.37 137.236 35.37C137.016 35.37 136.884 35.48 136.884 35.59C136.884 35.7 136.95 35.81 137.28 35.81C138.204 35.81 139.304 35.744 140.228 35.744C141.02 35.744 143.198 35.964 144.254 35.964C148.324 35.964 150.018 34.644 151.008 33.698C152.13 32.642 153.208 30.772 153.208 28.484C153.208 26.218 152.328 24.634 151.316 23.644C149.6 21.972 147.136 21.422 143.55 21.422C141.768 21.422 140.976 21.466 140.316 21.466C139.37 21.466 137.434 21.4 137.082 21.4C136.708 21.4 136.664 21.488 136.664 21.598C136.664 21.686 136.686 21.796 136.994 21.84L137.632 21.906C138.512 21.994 138.556 22.588 138.6 23.116C138.644 23.732 138.644 24.128 138.644 26.922V30.266ZM142.362 26.658C142.362 23.094 142.384 23.006 142.56 22.852C142.714 22.742 143.132 22.676 143.594 22.676C144.848 22.676 146.674 23.05 147.906 24.788C148.742 25.976 149.226 27.406 149.226 29.144C149.226 30.684 148.962 32.51 148.016 33.456C147.004 34.534 145.926 34.688 144.694 34.688C143.99 34.688 143.132 34.468 142.758 34.05C142.538 33.808 142.45 33.544 142.406 32.664C142.384 32.29 142.362 31.102 142.362 29.078V26.658ZM159.459 36.074C160.493 36.074 161.857 35.964 163.023 35.304C164.541 34.468 165.223 33.148 165.223 31.63C165.223 29.716 164.431 28.638 161.593 26.856L160.471 26.152C159.371 25.47 158.975 24.898 158.975 24.062C158.975 23.248 159.503 22.324 161.153 22.324C162.473 22.324 163.507 22.984 163.903 23.688C164.123 24.106 164.189 24.524 164.211 24.744C164.255 25.074 164.365 25.118 164.475 25.118C164.629 25.118 164.695 24.986 164.695 24.656C164.695 22.896 164.739 22.566 164.761 21.862C164.761 21.686 164.717 21.62 164.519 21.576C164.189 21.488 163.837 21.422 163.529 21.356C162.627 21.18 162.033 21.136 161.131 21.136C157.941 21.136 156.027 22.984 156.005 25.184C156.005 26.944 156.643 28.22 158.997 29.848L160.207 30.662C161.879 31.784 162.143 32.4 162.143 33.17C162.143 33.94 161.593 34.776 159.811 34.776C158.205 34.776 156.599 33.83 156.335 32.18C156.291 32.004 156.291 31.85 156.269 31.674C156.247 31.476 156.181 31.388 156.071 31.388C155.961 31.388 155.851 31.454 155.807 31.806C155.741 32.4 155.697 33.104 155.697 34.754C155.697 35.106 155.785 35.392 156.137 35.524C156.907 35.854 157.919 36.074 159.459 36.074Z" fill="black"/>
<defs>
<clipPath id="clip0_21_2756">
<rect width="29.8346" height="29.8346" fill="white" transform="translate(9.62439 7.19287)"/>
</clipPath>
</defs>
</svg>
