<svg width="189" height="51" viewBox="0 0 189 51" fill="none" xmlns="http://www.w3.org/2000/svg">
<path d="M24.6068 0.960449C24.2032 0.960449 23.8006 0.970098 23.3988 0.989394C22.997 1.00869 22.5953 1.03851 22.1935 1.07886C21.7917 1.1192 21.3917 1.16832 20.9934 1.22621C20.5952 1.2841 20.1986 1.35251 19.8039 1.43145C19.4091 1.51039 19.0161 1.5981 18.6249 1.69458C18.2336 1.79107 17.8459 1.89807 17.4617 2.0156C17.0757 2.13313 16.6932 2.25944 16.3142 2.39451C15.9353 2.52959 15.5589 2.67606 15.1852 2.83394C14.8133 2.98831 14.4448 3.15145 14.0799 3.32336C13.715 3.49527 13.3553 3.67596 13.0009 3.86541C12.65 4.05487 12.2991 4.25309 11.9482 4.46009C11.5973 4.66708 11.257 4.88285 10.9271 5.10739C10.592 5.33193 10.263 5.56348 9.94022 5.80205C9.61739 6.04063 9.29983 6.28797 8.98753 6.54408C8.67699 6.8002 8.37171 7.06333 8.0717 7.33348C7.77168 7.60362 7.47956 7.88166 7.19533 8.1676C6.91111 8.45178 6.63302 8.74386 6.36108 9.04382C6.08913 9.34379 5.82596 9.64902 5.57156 9.95952C5.31541 10.27 5.06803 10.5875 4.82942 10.9121C4.59081 11.2366 4.35922 11.5655 4.13465 11.8988C3.91007 12.2338 3.69427 12.5742 3.48724 12.9197C3.28022 13.2653 3.08196 13.6162 2.89248 13.9723C2.70299 14.3231 2.52228 14.6827 2.35034 15.0511C2.1784 15.4195 2.01524 15.7879 1.86084 16.1562C1.70645 16.5281 1.5617 16.9035 1.42661 17.2824C1.29151 17.6614 1.16695 18.0438 1.05291 18.4297C0.935356 18.8156 0.828333 19.2033 0.731836 19.5927C0.63534 19.9822 0.547616 20.3751 0.468665 20.7716C0.389713 21.1663 0.321289 21.5627 0.263391 21.9609C0.205493 22.3591 0.156369 22.7591 0.116016 23.1608C0.0756625 23.5625 0.0458353 23.9642 0.0265361 24.3659C0.00723683 24.7676 -0.00153516 25.1702 0.000219318 25.5737C0.000219318 25.9772 0.00986911 26.3798 0.0291684 26.7815C0.0484676 27.1832 0.0782928 27.5849 0.118646 27.9866C0.158999 28.3883 0.208126 28.7883 0.266023 29.1865C0.323921 29.5847 0.392345 29.9811 0.471297 30.3758C0.550248 30.7705 0.637972 31.1635 0.734469 31.5547C0.830965 31.9458 0.937111 32.3335 1.05291 32.7177C1.17046 33.1036 1.29678 33.486 1.43187 33.8649C1.56697 34.2439 1.71171 34.6192 1.86611 34.9911C2.0205 35.363 2.18367 35.7314 2.35561 36.0963C2.52754 36.4612 2.70826 36.8208 2.89774 37.1751C3.08722 37.526 3.28548 37.8768 3.49251 38.2276C3.69954 38.5785 3.91534 38.9188 4.13991 39.2486C4.36448 39.5837 4.59608 39.9126 4.83468 40.2353C5.07329 40.5581 5.32067 40.8756 5.57683 41.1879C5.83298 41.5001 6.09615 41.8053 6.36634 42.1036C6.63653 42.4018 6.91462 42.6939 7.2006 42.9798C7.48482 43.264 7.77694 43.542 8.07696 43.8139C8.37698 44.0858 8.68225 44.3489 8.99279 44.6033C9.30334 44.8594 9.6209 45.1068 9.94548 45.3453C10.2701 45.5839 10.599 45.8155 10.9324 46.04C11.2675 46.2645 11.6078 46.4803 11.9535 46.6873C12.2991 46.8943 12.65 47.0925 13.0062 47.282C13.3571 47.4714 13.7167 47.6521 14.0852 47.824C14.4536 47.9959 14.822 48.1591 15.1905 48.3134C15.5624 48.4678 15.9379 48.6125 16.3169 48.7476C16.6958 48.8827 17.0783 49.009 17.4643 49.1265C17.8503 49.2441 18.238 49.3511 18.6275 49.4475C19.017 49.544 19.41 49.6317 19.8065 49.7107C20.2013 49.7896 20.5978 49.858 20.9961 49.9159C21.3943 49.9738 21.7943 50.0229 22.1961 50.0633C22.5979 50.1036 22.9997 50.1334 23.4014 50.1527C23.8032 50.172 24.2059 50.1817 24.6094 50.1817C25.0129 50.1817 25.4156 50.172 25.8174 50.1527C26.2191 50.1334 26.6209 50.1036 27.0227 50.0633C27.4245 50.0229 27.8245 49.9738 28.2228 49.9159C28.621 49.858 29.0175 49.7896 29.4123 49.7107C29.807 49.6317 30.2001 49.544 30.5913 49.4475C30.9825 49.3511 31.3703 49.2441 31.7545 49.1265C32.1405 49.009 32.523 48.8827 32.9019 48.7476C33.2809 48.6125 33.6564 48.4678 34.0283 48.3134C34.4003 48.1591 34.7687 47.9959 35.1336 47.824C35.4986 47.6521 35.8582 47.4714 36.2127 47.282C36.5635 47.0925 36.9144 46.8943 37.2653 46.6873C37.6162 46.4803 37.9566 46.2645 38.2864 46.04C38.6215 45.8155 38.9505 45.5839 39.2733 45.3453C39.5962 45.1068 39.9137 44.8594 40.226 44.6033C40.5383 44.3472 40.8436 44.0841 41.1419 43.8139C41.4401 43.5438 41.7322 43.2657 42.0182 42.9798C42.3024 42.6956 42.5805 42.4035 42.8525 42.1036C43.1244 41.8036 43.3876 41.4984 43.642 41.1879C43.8981 40.8756 44.1455 40.5581 44.3841 40.2353C44.6227 39.9126 44.8543 39.5837 45.0789 39.2486C45.3035 38.9135 45.5193 38.5732 45.7263 38.2276C45.9333 37.8821 46.1316 37.5312 46.3211 37.1751C46.5106 36.8243 46.6913 36.4647 46.8632 36.0963C47.0351 35.7279 47.1983 35.3595 47.3527 34.9911C47.5071 34.6192 47.6518 34.2439 47.7869 33.8649C47.922 33.486 48.0484 33.1036 48.1659 32.7177C48.2835 32.3318 48.3905 31.9441 48.487 31.5547C48.5835 31.1652 48.6712 30.7723 48.7501 30.3758C48.8291 29.9811 48.8975 29.5847 48.9554 29.1865C49.0133 28.7883 49.0624 28.3883 49.1028 27.9866C49.1431 27.5849 49.173 27.1832 49.1923 26.7815C49.2116 26.3798 49.2212 25.9772 49.2212 25.5737C49.2212 25.1702 49.2116 24.7676 49.1923 24.3659C49.173 23.9642 49.1431 23.5625 49.1028 23.1608C49.0624 22.7591 49.0133 22.3591 48.9554 21.9609C48.8975 21.5627 48.8291 21.1663 48.7501 20.7716C48.6712 20.3769 48.5835 19.9839 48.487 19.5927C48.3905 19.2015 48.2817 18.8139 48.1606 18.4297C48.0431 18.0438 47.9168 17.6614 47.7817 17.2824C47.6466 16.9035 47.5018 16.5281 47.3474 16.1562C47.1931 15.7844 47.0299 15.416 46.8579 15.0511C46.686 14.6862 46.5053 14.3266 46.3158 13.9723C46.1263 13.6214 45.9281 13.2706 45.721 12.9197C45.514 12.5689 45.2982 12.2286 45.0736 11.8988C44.8508 11.5655 44.6192 11.2366 44.3789 10.9121C44.1385 10.5875 43.8911 10.27 43.6367 9.95952C43.3806 9.64902 43.1174 9.34379 42.8472 9.04382C42.577 8.74386 42.2989 8.45178 42.013 8.1676C41.7252 7.89219 41.434 7.61503 41.1392 7.33611C40.8445 7.05719 40.5392 6.79406 40.2234 6.54671C39.9111 6.2906 39.5935 6.04326 39.2707 5.80468C38.9479 5.56611 38.6189 5.33456 38.2838 5.11002C37.9487 4.88548 37.6083 4.66971 37.2627 4.46272C36.9171 4.25572 36.5662 4.0575 36.21 3.86804C35.8591 3.67859 35.4995 3.49791 35.131 3.32599C34.7626 3.15408 34.3941 2.99094 34.0257 2.83657C33.6537 2.6822 33.2783 2.53748 32.8993 2.40241C32.5203 2.26733 32.1379 2.14103 31.7519 2.0235C31.3659 1.90597 30.9782 1.79896 30.5887 1.70248C30.1992 1.606 29.8062 1.51829 29.4097 1.43935C29.0149 1.36041 28.6184 1.29199 28.2201 1.23411C27.8219 1.17622 27.4218 1.1271 27.0201 1.08675C26.6183 1.04641 26.2165 1.01658 25.8147 0.997287C25.413 0.977991 25.0103 0.965712 24.6068 0.960449Z" fill="#4ABD2E"/>
<g clip-path="url(#clip0_9_217)">
<path fill-rule="evenodd" clip-rule="evenodd" d="M22.7261 24.0526C25.5172 26.6216 29.3993 31.5334 32.5912 33.6697C35.5829 35.3816 38.1237 36.0176 41.3117 37.2349C41.8763 37.524 41.2382 37.7175 40.9524 37.8409C39.95 38.2729 38.2295 38.687 36.0245 39.0234C35.044 39.0503 34.3728 38.9709 34.0043 38.7062C30.8319 36.1534 24.9587 28.0653 23.0754 25.9006C22.0945 24.8358 22.2087 23.7999 22.7261 24.0526Z" fill="white" stroke="white" stroke-width="0.0754823"/>
<path fill-rule="evenodd" clip-rule="evenodd" d="M24.6438 9.69597C25.9031 10.145 27.2387 10.6573 28.1059 11.425C28.3586 11.6286 28.648 11.9696 28.0253 12.5599C27.3258 13.5315 26.978 14.2586 26.78 15.0886C25.0281 22.2799 20.3674 31.762 16.1286 35.8333C14.5465 37.2504 12.665 38.8866 11.4809 39.2788C10.8498 39.4811 10.7574 39.1802 11.7502 38.3302C13.4969 36.804 14.4301 35.4243 15.68 33.9595C19.9637 28.1742 22.5457 21.0757 23.8951 17.0055C24.5714 14.2629 24.5236 11.4552 24.1663 10.429C23.7743 9.81464 24.1893 9.54607 24.6438 9.69597Z" fill="white"/>
</g>
<path d="M73.6395 21.8688C75.3726 21.8688 76.5583 21.9144 77.3108 21.9829C78.6562 22.0741 78.9982 22.6213 79.0894 23.3282C79.1122 23.4422 79.1122 23.5335 79.135 23.7843C79.1578 24.0579 79.2035 24.1947 79.3859 24.1947C79.5227 24.1947 79.5911 24.0579 79.6139 23.7387C79.6367 23.1686 79.7735 21.0479 79.7735 20.7287C79.7735 20.1586 79.7507 20.0218 79.5455 20.0218C79.3859 20.0218 79.2035 20.0902 78.8386 20.1586C78.5194 20.2042 78.1089 20.2498 77.402 20.2498H67.4827C66.6162 20.2498 65.3621 20.1814 64.9516 20.0902C64.4271 19.9762 64.3359 19.9078 64.1763 19.9078C64.0395 19.9078 63.9711 20.1358 63.9255 20.4779C63.7659 21.3444 63.515 22.5757 63.4238 23.5107C63.401 23.7843 63.401 23.9667 63.6062 23.9667C63.7659 23.9667 63.8343 23.7843 63.8799 23.6019C63.9255 23.465 63.9711 23.3282 64.0851 23.0774C64.3815 22.2793 64.8832 21.9829 66.1602 21.9144C67.3003 21.846 68.7141 21.8688 69.6034 21.8688V30.8076C69.6034 33.0195 69.5578 34.6613 69.4666 35.619C69.3982 36.2803 69.2386 36.782 68.7369 36.8732C68.4861 36.9188 68.2352 36.9416 68.0072 36.9644C67.7336 36.9644 67.5511 37.0328 67.5511 37.1924C67.5511 37.3749 67.7108 37.4205 68.0756 37.4205C68.8281 37.4205 71.04 37.3521 71.4276 37.3521C71.7925 37.3521 74.0044 37.4205 75.555 37.4205C75.9654 37.4205 76.0794 37.3521 76.0794 37.2152C76.0794 37.0556 75.9882 36.9872 75.6234 36.9644C75.2129 36.9188 74.9393 36.896 74.6429 36.8504C73.9588 36.7364 73.7992 36.2575 73.7535 35.6646C73.6395 34.7069 73.6395 32.5862 73.6395 30.8076V21.8688ZM87.1027 33.658C87.1711 33.658 87.2623 33.7036 87.2851 33.772L88.5393 36.5768C88.6533 36.8276 88.4481 36.8504 88.2657 36.9188C88.1289 36.9644 87.992 37.01 87.992 37.1468C87.992 37.2608 88.1289 37.3521 88.4025 37.3521C89.611 37.3749 91.9826 37.3977 94.2857 37.4205C94.5137 37.4205 94.6961 37.3521 94.6961 37.1924C94.6961 37.0784 94.5593 36.9644 94.3085 36.9644C94.1944 36.9644 94.0348 36.9416 93.8524 36.9188C93.0771 36.8048 92.7122 36.2803 92.0054 34.8209C90.6372 31.8109 87.1027 24.4 86.6011 23.2826C86.2134 22.5073 86.031 22.2109 85.803 22.2109C85.5521 22.2109 85.3241 22.5073 84.8452 23.5563L79.3725 35.2314C78.7796 36.5768 78.2552 36.8504 77.2746 36.9644C77.0238 36.9644 76.9098 37.0556 76.9098 37.1924C76.9098 37.3292 77.001 37.4205 77.3203 37.4205C78.3008 37.4205 79.6233 37.3521 79.8514 37.3521C81.0143 37.3521 81.6984 37.4205 82.7017 37.4205C82.9754 37.4205 83.0894 37.3292 83.0894 37.1696C83.0894 37.0784 83.021 36.9872 82.7246 36.9644C82.2001 36.9188 81.3336 36.896 81.3336 36.2347C81.3336 35.9839 81.4704 35.5278 81.6756 35.0261L82.1545 33.8632C82.1773 33.7948 82.2457 33.658 82.3825 33.658H87.1027ZM83.021 31.8565C82.9754 31.8565 82.9298 31.8337 82.9526 31.7653L84.64 27.7064C84.6856 27.6152 84.6856 27.5696 84.754 27.6836L86.5554 31.7653C86.5783 31.8109 86.5783 31.8565 86.4414 31.8565H83.021ZM100.66 28.4589C100.66 25.1297 100.683 24.8332 100.729 24.1947C100.774 23.4879 100.934 23.123 101.504 23.0318C101.8 22.9634 101.892 22.9634 102.12 22.9406C102.302 22.9406 102.484 22.8722 102.484 22.6897C102.484 22.5757 102.393 22.4845 102.028 22.4845C101.299 22.4845 98.6535 22.5529 98.5395 22.5529C97.673 22.5529 96.6696 22.4845 95.4383 22.4845C95.0278 22.4845 94.8682 22.5529 94.8682 22.7126C94.8682 22.8722 95.0506 22.9178 95.2786 22.9406C95.5751 22.9634 95.8487 23.009 96.0311 23.0546C96.51 23.1914 96.6924 23.5107 96.738 24.0579C96.7836 24.6964 96.8064 24.9244 96.8064 28.2081V31.6741C96.8064 32.7687 96.7836 33.8632 96.7836 34.6385C96.7152 36.4627 96.624 36.782 95.8031 36.9188C95.5751 36.9416 95.5295 36.9416 95.3243 36.9644C95.0506 36.9644 94.9366 37.0784 94.9366 37.1696C94.9366 37.3521 95.0962 37.4205 95.4155 37.4205C96.5784 37.4205 97.6046 37.3521 98.5623 37.3521C100.729 37.3521 102.621 37.4661 105.7 37.4661C106.452 37.4661 106.589 37.4661 106.771 36.9416C106.977 36.3715 107.273 34.3877 107.273 33.886C107.273 33.6124 107.227 33.4755 107.091 33.4755C106.908 33.4755 106.84 33.658 106.794 33.886C106.543 34.9805 106.11 35.4594 105.54 35.6874C104.97 35.8927 104.423 35.9155 103.282 35.9155C101.572 35.9155 101.207 35.8471 100.911 35.4366C100.592 35.0033 100.66 33.5668 100.66 31.6969V28.4589ZM110.568 31.6741C110.568 32.7687 110.546 33.8632 110.546 34.6157C110.477 36.0067 110.409 36.782 109.747 36.896C109.519 36.9416 109.36 36.9416 109.155 36.9644C108.813 36.9644 108.744 37.0784 108.744 37.1696C108.744 37.3064 108.835 37.4205 109.223 37.4205C110.386 37.4205 111.366 37.3521 112.324 37.3521C114.491 37.3521 115.95 37.4661 119.005 37.4661C119.758 37.4661 119.918 37.4433 120.077 36.9416C120.168 36.5539 120.374 34.9577 120.374 34.0912C120.374 33.8404 120.351 33.6808 120.191 33.6808C120.054 33.6808 119.963 33.7948 119.918 34.0228C119.735 34.9349 119.507 35.4138 118.937 35.6418C118.367 35.8471 117.569 35.8699 117.044 35.8699C114.719 35.8699 114.468 35.5506 114.445 34.1596C114.422 33.3615 114.445 32.4266 114.445 31.7653V30.3287C114.445 30.2147 114.468 30.1691 114.582 30.1691C115.22 30.1691 116.771 30.1919 117.409 30.2375C118.481 30.3059 118.709 30.6708 118.823 31.2865C118.846 31.4233 118.846 31.5601 118.869 31.6741C118.891 31.9021 118.983 31.9934 119.097 31.9934C119.234 31.9934 119.302 31.9249 119.302 31.6513C119.302 31.4233 119.325 30.3743 119.348 29.9411C119.37 29.2114 119.507 28.3449 119.507 28.1169C119.507 28.0028 119.484 27.866 119.348 27.866C119.256 27.866 119.165 27.9344 119.074 28.1169C118.823 28.5045 118.549 28.5729 117.432 28.6185C116.634 28.6413 115.22 28.6413 114.605 28.6413C114.468 28.6413 114.445 28.5957 114.445 28.4589V24.286C114.445 24.1491 114.491 24.0807 114.605 24.0807C115.243 24.0807 116.908 24.1263 117.66 24.1719C118.641 24.2632 118.891 24.5368 119.005 24.9928C119.074 25.2893 119.074 25.4489 119.12 25.7225C119.142 25.905 119.234 25.9962 119.348 25.9962C119.484 25.9962 119.576 25.8366 119.576 25.6769C119.644 24.4456 119.667 24.0351 119.69 23.5335C119.735 23.0774 119.804 22.8266 119.849 22.5757C119.872 22.4617 119.826 22.3705 119.712 22.3705C119.644 22.3705 119.53 22.3933 119.393 22.4389C119.051 22.5073 118.618 22.5301 118.23 22.5301C117.911 22.5301 112.666 22.5529 112.301 22.5529C111.435 22.5529 110.477 22.4845 109.246 22.4845C108.927 22.4845 108.813 22.5757 108.813 22.6897C108.813 22.8038 108.858 22.9178 109.155 22.9406C109.36 22.9634 109.588 22.9634 109.77 23.009C110.249 23.1002 110.454 23.4194 110.5 23.9211C110.546 24.5596 110.568 24.9244 110.568 28.2081V31.6741ZM124.117 34.5245C124.048 36.3487 123.866 36.8048 123.022 36.9188C122.771 36.9416 122.657 36.9416 122.452 36.9644C122.178 36.9872 122.087 37.0784 122.087 37.1924C122.087 37.3521 122.201 37.4205 122.543 37.4205C123.227 37.4205 124.892 37.3521 125.462 37.3521C126.899 37.3749 127.514 37.4205 128.084 37.4205C128.449 37.4205 128.586 37.3521 128.586 37.1924C128.586 37.0784 128.495 37.01 128.153 36.9644C127.742 36.9416 127.514 36.9188 127.127 36.8276C126.511 36.668 126.465 36.0979 126.42 34.7297L126.214 28.3221C127.97 29.9183 129.726 31.4233 130.821 32.4038C131.801 33.2931 133.42 34.6841 134.834 35.8699C136.453 37.1924 137.16 37.6941 137.502 37.6941C137.798 37.6941 137.935 37.4889 137.935 36.3487C137.958 32.381 138.026 28.3449 138.209 24.628C138.277 23.3738 138.505 23.0774 139.189 22.9862C139.326 22.9634 139.395 22.9634 139.645 22.9406C139.942 22.9178 139.987 22.781 139.987 22.6897C139.987 22.5757 139.896 22.4845 139.554 22.4845C138.733 22.4845 137.662 22.5529 137.16 22.5529C136.248 22.5529 134.834 22.4845 134.081 22.4845C133.876 22.4845 133.694 22.5529 133.694 22.7126C133.694 22.8038 133.785 22.9178 134.059 22.9406C134.378 22.9634 134.629 22.9862 134.88 23.0318C135.769 23.1686 135.906 23.6931 135.951 24.7876L136.065 31.7653C135.472 31.2409 134.401 30.3287 132.143 28.3449C129.612 26.1102 126.465 23.4194 125.485 22.6441C124.915 22.2109 124.823 22.2109 124.709 22.2109C124.413 22.2109 124.345 22.5529 124.322 23.2142C124.231 25.8594 124.231 30.4428 124.117 34.5245ZM143.704 31.6741C143.704 35.3682 143.818 36.8048 142.837 36.896C142.541 36.9416 142.473 36.9644 142.245 36.9644C142.017 36.9644 141.88 37.0784 141.88 37.1924C141.88 37.3064 141.948 37.4205 142.29 37.4205C143.248 37.4205 144.388 37.3521 145.346 37.3521C146.167 37.3521 148.424 37.5801 149.519 37.5801C153.737 37.5801 155.493 36.2119 156.519 35.2314C157.682 34.1368 158.8 32.1986 158.8 29.8271C158.8 27.4784 157.887 25.8366 156.838 24.8104C155.06 23.0774 152.506 22.5073 148.789 22.5073C146.942 22.5073 146.121 22.5529 145.437 22.5529C144.456 22.5529 142.45 22.4845 142.085 22.4845C141.697 22.4845 141.652 22.5757 141.652 22.6897C141.652 22.781 141.674 22.895 141.994 22.9406L142.655 23.009C143.567 23.1002 143.613 23.7159 143.658 24.2632C143.704 24.9016 143.704 25.3121 143.704 28.2081V31.6741ZM147.558 27.9344C147.558 24.2403 147.58 24.1491 147.763 23.9895C147.922 23.8755 148.356 23.8071 148.835 23.8071C150.134 23.8071 152.027 24.1947 153.304 25.9962C154.171 27.2275 154.672 28.7097 154.672 30.5112C154.672 32.1074 154.399 34 153.418 34.9805C152.369 36.0979 151.252 36.2575 149.975 36.2575C149.245 36.2575 148.356 36.0295 147.968 35.5962C147.74 35.3454 147.649 35.0718 147.603 34.1596C147.58 33.772 147.558 32.5406 147.558 30.4428V27.9344ZM165.279 37.6941C166.351 37.6941 167.765 37.5801 168.973 36.896C170.547 36.0295 171.254 34.6613 171.254 33.0879C171.254 31.104 170.433 29.9867 167.491 28.1397L166.328 27.41C165.188 26.7031 164.778 26.1102 164.778 25.2437C164.778 24.4 165.325 23.4422 167.035 23.4422C168.403 23.4422 169.475 24.1263 169.885 24.856C170.114 25.2893 170.182 25.7225 170.205 25.9506C170.25 26.2926 170.364 26.3382 170.478 26.3382C170.638 26.3382 170.706 26.2014 170.706 25.8594C170.706 24.0351 170.752 23.6931 170.775 22.9634C170.775 22.781 170.729 22.7126 170.524 22.6669C170.182 22.5757 169.817 22.5073 169.498 22.4389C168.563 22.2565 167.947 22.2109 167.012 22.2109C163.706 22.2109 161.722 24.1263 161.699 26.4066C161.699 28.2309 162.361 29.5534 164.8 31.2409L166.055 32.0846C167.788 33.2475 168.061 33.886 168.061 34.6841C168.061 35.4822 167.491 36.3487 165.644 36.3487C163.98 36.3487 162.315 35.3682 162.041 33.658C161.996 33.4755 161.996 33.3159 161.973 33.1335C161.95 32.9283 161.882 32.8371 161.768 32.8371C161.654 32.8371 161.54 32.9055 161.494 33.2703C161.426 33.886 161.38 34.6157 161.38 36.3259C161.38 36.6908 161.471 36.9872 161.836 37.124C162.634 37.4661 163.683 37.6941 165.279 37.6941Z" fill="white"/>
<defs>
<clipPath id="clip0_9_217">
<rect width="30.9235" height="30.9235" fill="white" transform="translate(9.97565 8.41602)"/>
</clipPath>
</defs>
</svg>
