<svg xmlns="http://www.w3.org/2000/svg" width="200" height="200" viewBox="0 0 200 200"><g transform="translate(10791 -510)"><circle cx="84.5" cy="84.5" r="84.5" transform="translate(-10775 526)" fill="#242424"/><g transform="translate(-10791 510)" fill="none" stroke="#fff" stroke-width="15"><circle cx="100" cy="100" r="100" stroke="none"/><circle cx="100" cy="100" r="92.5" fill="none"/></g><path d="M51.136,12.118a3.079,3.079,0,0,0-.024,4.335L65.438,30.8H10.915a3.063,3.063,0,0,0,0,6.126h54.5L51.089,51.279a3.1,3.1,0,0,0,.024,4.335,3.051,3.051,0,0,0,4.312-.024L74.839,36.034h0a3.44,3.44,0,0,0,.636-.966,2.923,2.923,0,0,0,.236-1.178,3.071,3.071,0,0,0-.872-2.144L55.424,12.189A3,3,0,0,0,51.136,12.118Z" transform="translate(-10732.793 575.941)" fill="#fff"/></g></svg>